<?xml version="1.0" encoding="UTF-8" standalone="no"?><!DOCTYPE svg PUBLIC "-//W3C//DTD SVG 1.1//EN" "http://www.w3.org/Graphics/SVG/1.1/DTD/svg11.dtd"><svg width="100%" height="100%" viewBox="0 0 240 240" version="1.1" xmlns="http://www.w3.org/2000/svg" xmlns:xlink="http://www.w3.org/1999/xlink" xml:space="preserve" xmlns:serif="http://www.serif.com/" style="fill-rule:evenodd;clip-rule:evenodd;stroke-linejoin:round;stroke-miterlimit:1.41421;"><rect id="Artboard3" x="0" y="0" width="240" height="240" style="fill:none;"/><path d="M108.922,117.086l-11.534,0l0,-11.134c0,-22.535 14.468,-37.136 34.536,-37.136c19.135,0 33.069,13.734 33.069,33.202c0.134,19.468 -14.799,33.668 -34.936,33.67l-39.336,0c-5.735,0.001 -9.068,3.534 -9.068,8.6c0,4.534 3.067,7.734 7.468,7.734c5.133,0 8.067,-3.533 8.334,-8.6l11.401,0c-0.601,12.401 -8.334,19.001 -19.869,19.001c-10.801,0 -18.868,-7.334 -18.868,-18.268c0,-11.401 8.467,-19.335 21.202,-19.335l38.936,0c13.135,0 23.135,-9.667 23.135,-22.668c0,-13.135 -8.934,-22.402 -21.668,-22.402c-12.601,0 -22.802,9.201 -22.802,26.202l0,11.134Z" style="fill:#169cee;"/><g id="Layer1"><path d="M123.61,218.738l-90.924,-52.495l4.718,-8.173l90.924,52.495l-4.718,8.173Z" style="fill:#e535ab;"/><path d="M202.596,81.93l-90.924,-52.495l4.718,-8.173l90.924,52.495l-4.718,8.173Z" style="fill:#e535ab;"/><path d="M37.404,81.93l-4.721,-8.178l90.927,-52.49l4.72,8.178l-90.926,52.49Z" style="fill:#e535ab;"/><path d="M36.295,172.495l0,-104.99l9.438,0l0,104.99l-9.438,0Z" style="fill:#e535ab;"/><path d="M194.267,172.495l0,-104.99l9.437,0l0,104.99l-9.437,0Z" style="fill:#e535ab;"/><path d="M122.013,214.782l-4.104,-7.108l79.064,-45.649l4.104,7.108l-79.064,45.649Z" style="fill:#e535ab;"/><path d="M216.209,175.546c-5.467,9.469 -17.576,12.714 -27.045,7.247c-9.466,-5.466 -12.711,-17.575 -7.244,-27.044c5.467,-9.469 17.576,-12.713 27.042,-7.248c9.469,5.467 12.714,17.576 7.247,27.045" style="fill:#e535ab;fill-rule:nonzero;"/><path d="M58.08,84.25c-5.467,9.469 -17.576,12.714 -27.044,7.247c-9.467,-5.466 -12.712,-17.575 -7.245,-27.043c5.467,-9.469 17.576,-12.714 27.043,-7.248c9.468,5.467 12.713,17.576 7.246,27.044" style="fill:#e535ab;fill-rule:nonzero;"/><path d="M23.791,175.546c-5.467,-9.469 -2.222,-21.578 7.247,-27.045c9.466,-5.465 21.575,-2.221 27.042,7.248c5.467,9.469 2.222,21.578 -7.244,27.044c-9.469,5.467 -21.578,2.222 -27.045,-7.247" style="fill:#e535ab;fill-rule:nonzero;"/><path d="M181.92,84.25c-5.467,-9.468 -2.222,-21.577 7.246,-27.044c9.467,-5.466 21.576,-2.221 27.043,7.248c5.467,9.468 2.222,21.578 -7.245,27.043c-9.468,5.467 -21.577,2.222 -27.044,-7.247" style="fill:#e535ab;fill-rule:nonzero;"/><path d="M120,231.092c-10.934,0 -19.798,-8.864 -19.798,-19.798c0,-10.931 8.864,-19.795 19.798,-19.795c10.934,0 19.798,8.864 19.798,19.795c0,10.934 -8.864,19.798 -19.798,19.798" style="fill:#e535ab;fill-rule:nonzero;"/><path d="M120,48.501c-10.934,0 -19.798,-8.864 -19.798,-19.798c0,-10.931 8.864,-19.795 19.798,-19.795c10.934,0 19.798,8.864 19.798,19.795c0,10.934 -8.864,19.798 -19.798,19.798" style="fill:#e535ab;fill-rule:nonzero;"/></g></svg>